<svg id="Layer_1" data-name="Layer 1" xmlns="http://www.w3.org/2000/svg" viewBox="0 0 256 256"><defs><style>.cls-1{fill:#fff;}</style></defs><title>backup</title><path class="cls-1" d="M120.65,201.9a7.35,7.35,0,0,0,14.7,0V146.75h-14.7Z"/><path class="cls-1" d="M182.71,96.75a49.75,49.75,0,0,0-9.64-29.51,50.26,50.26,0,0,0-10.33-10.47,49.71,49.71,0,0,0-27.38-10c-.88,0-1.76-.07-2.65-.07A50,50,0,0,0,88.71,73c-.69,1.27-1.33,2.57-1.91,3.91-1.16-.11-2.33-.17-3.51-.17a35,35,0,0,0,0,70h37.36v-37.4l-23,23-6,6A7.36,7.36,0,0,1,81.21,128L122.79,86.4a7.31,7.31,0,0,1,4.46-2.11,7.05,7.05,0,0,1,1.5,0,7.31,7.31,0,0,1,4.46,2.11L174.79,128A7.36,7.36,0,0,1,164.4,138.4l-1.67-1.67-27.38-27.38v37.4h47.36a25,25,0,1,0,0-50Z"/></svg>