<svg id="Layer_1" data-name="Layer 1" xmlns="http://www.w3.org/2000/svg" viewBox="0 0 256 256"><defs><style>.cls-1{fill:#fff;}.cls-2{fill:none;stroke:#fff;stroke-linecap:round;stroke-miterlimit:10;stroke-width:10px;}</style></defs><title>qr</title><path class="cls-1" d="M107,81.5a12.32,12.32,0,0,1,12.32,12.31v13.38A12.32,12.32,0,0,1,107,119.5H93.65a12.32,12.32,0,0,1-12.31-12.31V93.81A12.32,12.32,0,0,1,93.65,81.5H107m0-6H93.65A18.31,18.31,0,0,0,75.34,93.81v13.38A18.31,18.31,0,0,0,93.65,125.5H107a18.32,18.32,0,0,0,18.32-18.31V93.81A18.32,18.32,0,0,0,107,75.5Z"/><rect class="cls-1" x="90.34" y="90.5" width="20" height="20" rx="4.46" ry="4.46"/><path class="cls-1" d="M162.35,81.5a12.32,12.32,0,0,1,12.31,12.31v13.38a12.32,12.32,0,0,1-12.31,12.31H149a12.32,12.32,0,0,1-12.32-12.31V93.81A12.32,12.32,0,0,1,149,81.5h13.37m0-6H149a18.32,18.32,0,0,0-18.32,18.31v13.38A18.32,18.32,0,0,0,149,125.5h13.37a18.31,18.31,0,0,0,18.31-18.31V93.81A18.31,18.31,0,0,0,162.35,75.5Z"/><rect class="cls-1" x="145.66" y="90.5" width="20" height="20" rx="4.46" ry="4.46"/><path class="cls-1" d="M107,136.5a12.32,12.32,0,0,1,12.32,12.31v13.38A12.32,12.32,0,0,1,107,174.5H93.65a12.32,12.32,0,0,1-12.31-12.31V148.81A12.32,12.32,0,0,1,93.65,136.5H107m0-6H93.65a18.31,18.31,0,0,0-18.31,18.31v13.38A18.31,18.31,0,0,0,93.65,180.5H107a18.32,18.32,0,0,0,18.32-18.31V148.81A18.32,18.32,0,0,0,107,130.5Z"/><rect class="cls-1" x="90.34" y="145.5" width="20" height="20" rx="4.46" ry="4.46"/><line class="cls-2" x1="155.66" y1="137.7" x2="155.66" y2="173.3"/><line class="cls-2" x1="137.86" y1="155.5" x2="173.46" y2="155.5"/></svg>