<?xml version="1.0" encoding="utf-8"?>
<!-- Generator: Adobe Illustrator 22.0.0, SVG Export Plug-In . SVG Version: 6.00 Build 0)  -->
<svg version="1.1" id="Layer_1" xmlns="http://www.w3.org/2000/svg" xmlns:xlink="http://www.w3.org/1999/xlink" x="0px" y="0px"
	 viewBox="0 0 256 256" style="enable-background:new 0 0 256 256;" xml:space="preserve">
<style type="text/css">
	.st0{fill:#FF9500;}
</style>
<g>
	<path class="st0" d="M127.7,79.9h-17.8v43.5h12.2v0.1h10.5c11.5,0,20.8-10.2,20.8-22.2c0-5.7-2.1-10.8-6.2-15.1
		C143.1,82.2,135.3,79.9,127.7,79.9z"/>
	<path class="st0" d="M128,0C57.3,0,0,57.3,0,128s57.3,128,128,128s128-57.3,128-128S198.7,0,128,0z M155.2,206L110,136.4V206H78.4
		L78.3,48.6h51.4c17.5,0,31.7,6.6,41.2,16c9.6,9.6,15.2,18.3,15.2,35.7v4.1c0,10.6-3.3,20.6-10,30c-5.5,7.7-9.9,11-18.8,14.6
		l36.6,57H155.2z"/>
</g>
</svg>
